<svg width="656" height="354" viewBox="0 0 656 354" fill="none" xmlns="http://www.w3.org/2000/svg">
<rect x="-0.000244141" y="0.165283" width="656" height="353.518" rx="20" fill="url(#paint0_linear_35_472)"/>
<path d="M21.4163 210.166H634.583V317.501C634.583 327.718 626.301 336.001 616.083 336.001H39.9162C29.6988 336.001 21.4163 327.72 21.4163 317.503V317.281V317.059V316.838V316.616V316.394V316.172V315.949V315.727V315.505V315.282V315.06V314.837V314.614V314.391V314.168V313.945V313.722V313.499V313.275V313.052V312.828V312.605V312.381V312.157V311.933V311.709V311.485V311.261V311.037V310.812V310.588V310.363V310.139V309.914V309.69V309.465V309.24V309.015V308.79V308.565V308.34V308.114V307.889V307.664V307.438V307.213V306.987V306.761V306.536V306.31V306.084V305.858V305.632V305.406V305.18V304.953V304.727V304.501V304.275V304.048V303.822V303.595V303.369V303.142V302.915V302.688V302.462V302.235V302.008V301.781V301.554V301.327V301.1V300.873V300.645V300.418V300.191V299.963V299.736V299.509V299.281V299.054V298.826V298.599V298.371V298.143V297.916V297.688V297.46V297.232V297.005V296.777V296.549V296.321V296.093V295.865V295.637V295.409V295.181V294.953V294.725V294.497V294.269V294.041V293.812V293.584V293.356V293.128V292.9V292.671V292.443V292.215V291.986V291.758V291.53V291.301V291.073V290.845V290.616V290.388V290.16V289.931V289.703V289.474V289.246V289.017V288.789V288.561V288.332V288.104V287.875V287.647V287.419V287.19V286.962V286.733V286.505V286.277V286.048V285.82V285.592V285.363V285.135V284.906V284.678V284.45V284.222V283.993V283.765V283.537V283.309V283.08V282.852V282.624V282.396V282.168V281.94V281.712V281.484V281.256V281.028V280.8V280.572V280.344V280.116V279.888V279.66V279.432V279.205V278.977V278.749V278.522V278.294V278.066V277.839V277.611V277.384V277.157V276.929V276.702V276.247V276.02V275.793V275.339V275.112V274.885V274.431V274.204V273.977V273.524V273.071V272.844V272.618V272.165V271.939V271.713V271.26V270.808V270.583V270.357V269.905V269.68V269.454V269.003V268.778V268.553V268.327V268.102V267.877V267.652V267.427V267.202V266.978V266.753V266.528V266.304V266.08V265.855V265.631V265.407V265.183V264.959V264.735V264.511V264.287V264.063V263.84V263.616V263.393V263.17V262.946V262.723V262.5V262.277V262.055V261.832V261.609V261.387V261.164V260.942V260.72V260.498V260.276V260.054V259.832V259.61V259.388V259.167V258.946V258.724V258.503V258.282V258.061V257.84V257.619V257.399V257.178V256.958V256.738V256.518V256.298V256.078V255.858V255.638V255.419V255.199V254.98V254.761V254.542V254.323V254.104V253.885V253.667V253.448V253.23V253.012V252.794V252.576V252.358V252.14V251.923V251.705V251.488V251.271V251.054V250.837V250.621V250.404V250.188V249.971V249.755V249.539V249.323V249.108V248.892V248.677V248.462V248.246V248.031V247.817V247.602V247.388V247.173V246.959V246.745V246.531V246.317V246.104V245.89V245.677V245.464V245.251V245.038V244.826V244.613V244.401V244.189V243.977V243.765V243.553V243.342V243.131V242.92V242.709V242.498V242.287V242.077V241.867V241.657V241.447V241.237V241.027V240.818V240.609V240.4V240.191V239.982V239.774V239.565V239.357V239.149V238.942V238.734V238.527V238.32V238.113V237.906V237.699V237.493V237.286V237.08V236.875V236.669V236.464V236.258V236.053V235.848V235.644V235.439V235.235V235.031V234.827V234.623V234.42V234.217V234.014V233.811V233.608V233.406V233.203V233.001V232.8V232.598V232.397V210.166ZM634.583 207.166H21.4163V206.881V206.525V206.17V205.816V205.461V205.108V204.754V204.402V204.049V203.697V203.346V202.995V202.644V202.294V201.945V201.596V201.247V200.899V200.551V200.203V199.856V199.51V199.164V198.818V198.473V198.128V197.783V197.439V197.096V196.752V196.41V196.067V195.725V195.384V195.042V194.702V194.361V194.021V193.682V193.342V193.004V192.665V192.327V191.989V191.652V191.315V190.979V190.642V190.307V189.971V189.636V189.301V188.967V188.633V188.299V187.966V187.633V187.3V186.968V186.636V186.305V185.973V185.642V185.312V184.982V184.652V184.322V183.993V183.664V183.335V183.007V182.679V182.351V182.024V181.697V181.37V181.044V180.717V180.392V180.066V179.741V179.416V179.091V178.767V178.443V178.119V177.795V177.472V177.149V176.826V176.504V176.182V175.86V175.538V175.217V174.896V174.575V174.254V173.934V173.614V173.294V172.974V172.655V172.336V172.017V171.698V171.38V171.061V170.743V170.426V170.108V169.791V169.474V169.157V168.84V168.524V168.208V167.892V167.576V167.26V166.945V166.63V166.315V166V165.685V165.371V165.057V164.743V164.429V164.115V163.802V163.488V163.175V162.862V162.549V162.237V161.924V161.612V161.3V160.988V160.676V160.364V160.053V159.742V159.43V159.119V158.808V158.497V158.187V157.876V157.566V157.256V156.945V156.635V156.326V156.016V155.706V155.397V155.087V154.778V154.469V154.16V153.851V153.542V153.233V152.924V152.616V152.307V151.999V151.69V151.382V151.074V150.766V150.458V150.15V149.842V149.535V149.227V148.919V148.612V148.304V147.997V147.689V147.382V147.075V146.768V146.46V146.153V145.846V145.539V145.232V144.925V144.618V144.312V144.005V143.698V143.391V143.084V142.778V142.471V142.164V141.858V141.551V141.244V140.938V140.631V140.324V140.018V139.711V139.404V139.098V138.791V138.484V138.178V137.871V137.564V137.258V136.951V136.644V136.337V136.03V135.724V135.417V135.11V134.803V134.496V134.189V133.882V133.575V133.267V132.96V132.653V132.345V132.038V131.731V131.423V131.115V130.808V130.5V130.192V129.884V129.576V129.268V128.96V128.652V128.344V128.035V127.727V127.418V127.11V126.801V126.492V126.183V125.874V125.565V125.256V124.946V124.637V124.327V124.017V123.707V123.397V123.087V122.777V122.467V122.156V121.846V121.535V116.542V115.915V115.601V115.287V114.659V114.029V113.399V113.084V112.768V112.137V111.504V111.188V110.871V110.237V109.601V109.283V108.965V108.328V107.69V107.371V107.052V106.732V106.412V106.091V105.771V105.45V105.129V104.808V104.486V104.164V103.842V103.52V103.197V102.874V102.551V102.228V101.904V101.58V101.255V100.931V100.606V100.281V99.9553V99.6295V99.3034V98.977V98.6504V98.3234V97.9961V97.6685V97.3406V97.0123V96.6838V96.3549V96.0257V95.6962V95.3664V95.0362V94.7057V94.3749V94.0437V93.7122V93.3804V93.0482V92.7157V92.3828V92.0496V91.716V91.3821V91.0478V90.7132V90.3782V90.0428V89.7071V89.371V89.0345V88.6977V88.3605V88.0229V87.6849V87.3466V87.0079V86.6688V86.3292V85.9894V85.6491V85.3084V84.9673V84.6258V84.2839V83.9417V83.599V83.2559V82.9124V82.5684V82.2241V81.8793V81.5342V81.1885V80.8425V80.4961V80.1492V79.8019V79.4541V79.1059V78.7573V78.4082V78.0587V77.7088V77.3584V77.0075V76.6562V76.3045V75.9522V75.5996V75.2464V74.8928V74.5387V74.1842V73.8292V73.4737V73.1177V72.7613V72.4044V72.047V71.6891V71.3307V70.9719V70.6125V70.2527V69.8923V69.5315V69.1701V68.8083V68.4459V68.0831V67.7197V67.3558V66.9914V66.6265V66.2611V65.8951V65.5286V65.1616V64.7941V64.426V64.0574V63.6883V63.3186V62.9484V62.5776V62.2063V61.8345V61.4621V61.0891V60.7156V60.3416V59.967V59.5918V59.216V58.8397V58.4629V58.0854V57.7074V57.3288V56.9496V56.5699V56.1895V55.8086V55.4271V55.045V54.6624V54.2791V53.8952V53.5107V53.1257V52.74V52.3537V51.9668V51.5794V51.1912V50.8025V50.4132V50.0232V49.6327V49.2415V48.8497V48.4572V48.0641V47.6704V47.2761V46.8811V46.4855V46.0892V45.6923V45.2947V44.8965V44.4977V44.0982V43.698V43.2972V42.8957V42.4935V42.0907V41.6873V41.2831V40.8783V40.4728V40.0666V39.6598V39.2523V38.8441V38.4352V38.0256V37.6153C21.4163 27.3958 29.7012 19.0922 39.9163 19.0922H616.083C626.301 19.0922 634.583 27.375 634.583 37.5922V207.166Z" stroke="url(#paint1_linear_35_472)" stroke-width="3"/>
<path d="M21.4163 210.166H634.583V317.501C634.583 327.718 626.301 336.001 616.083 336.001H39.9162C29.6988 336.001 21.4163 327.72 21.4163 317.503V317.281V317.059V316.838V316.616V316.394V316.172V315.949V315.727V315.505V315.282V315.06V314.837V314.614V314.391V314.168V313.945V313.722V313.499V313.275V313.052V312.828V312.605V312.381V312.157V311.933V311.709V311.485V311.261V311.037V310.812V310.588V310.363V310.139V309.914V309.69V309.465V309.24V309.015V308.79V308.565V308.34V308.114V307.889V307.664V307.438V307.213V306.987V306.761V306.536V306.31V306.084V305.858V305.632V305.406V305.18V304.953V304.727V304.501V304.275V304.048V303.822V303.595V303.369V303.142V302.915V302.688V302.462V302.235V302.008V301.781V301.554V301.327V301.1V300.873V300.645V300.418V300.191V299.963V299.736V299.509V299.281V299.054V298.826V298.599V298.371V298.143V297.916V297.688V297.46V297.232V297.005V296.777V296.549V296.321V296.093V295.865V295.637V295.409V295.181V294.953V294.725V294.497V294.269V294.041V293.812V293.584V293.356V293.128V292.9V292.671V292.443V292.215V291.986V291.758V291.53V291.301V291.073V290.845V290.616V290.388V290.16V289.931V289.703V289.474V289.246V289.017V288.789V288.561V288.332V288.104V287.875V287.647V287.419V287.19V286.962V286.733V286.505V286.277V286.048V285.82V285.592V285.363V285.135V284.906V284.678V284.45V284.222V283.993V283.765V283.537V283.309V283.08V282.852V282.624V282.396V282.168V281.94V281.712V281.484V281.256V281.028V280.8V280.572V280.344V280.116V279.888V279.66V279.432V279.205V278.977V278.749V278.522V278.294V278.066V277.839V277.611V277.384V277.157V276.929V276.702V276.247V276.02V275.793V275.339V275.112V274.885V274.431V274.204V273.977V273.524V273.071V272.844V272.618V272.165V271.939V271.713V271.26V270.808V270.583V270.357V269.905V269.68V269.454V269.003V268.778V268.553V268.327V268.102V267.877V267.652V267.427V267.202V266.978V266.753V266.528V266.304V266.08V265.855V265.631V265.407V265.183V264.959V264.735V264.511V264.287V264.063V263.84V263.616V263.393V263.17V262.946V262.723V262.5V262.277V262.055V261.832V261.609V261.387V261.164V260.942V260.72V260.498V260.276V260.054V259.832V259.61V259.388V259.167V258.946V258.724V258.503V258.282V258.061V257.84V257.619V257.399V257.178V256.958V256.738V256.518V256.298V256.078V255.858V255.638V255.419V255.199V254.98V254.761V254.542V254.323V254.104V253.885V253.667V253.448V253.23V253.012V252.794V252.576V252.358V252.14V251.923V251.705V251.488V251.271V251.054V250.837V250.621V250.404V250.188V249.971V249.755V249.539V249.323V249.108V248.892V248.677V248.462V248.246V248.031V247.817V247.602V247.388V247.173V246.959V246.745V246.531V246.317V246.104V245.89V245.677V245.464V245.251V245.038V244.826V244.613V244.401V244.189V243.977V243.765V243.553V243.342V243.131V242.92V242.709V242.498V242.287V242.077V241.867V241.657V241.447V241.237V241.027V240.818V240.609V240.4V240.191V239.982V239.774V239.565V239.357V239.149V238.942V238.734V238.527V238.32V238.113V237.906V237.699V237.493V237.286V237.08V236.875V236.669V236.464V236.258V236.053V235.848V235.644V235.439V235.235V235.031V234.827V234.623V234.42V234.217V234.014V233.811V233.608V233.406V233.203V233.001V232.8V232.598V232.397V210.166ZM634.583 207.166H21.4163V206.881V206.525V206.17V205.816V205.461V205.108V204.754V204.402V204.049V203.697V203.346V202.995V202.644V202.294V201.945V201.596V201.247V200.899V200.551V200.203V199.856V199.51V199.164V198.818V198.473V198.128V197.783V197.439V197.096V196.752V196.41V196.067V195.725V195.384V195.042V194.702V194.361V194.021V193.682V193.342V193.004V192.665V192.327V191.989V191.652V191.315V190.979V190.642V190.307V189.971V189.636V189.301V188.967V188.633V188.299V187.966V187.633V187.3V186.968V186.636V186.305V185.973V185.642V185.312V184.982V184.652V184.322V183.993V183.664V183.335V183.007V182.679V182.351V182.024V181.697V181.37V181.044V180.717V180.392V180.066V179.741V179.416V179.091V178.767V178.443V178.119V177.795V177.472V177.149V176.826V176.504V176.182V175.86V175.538V175.217V174.896V174.575V174.254V173.934V173.614V173.294V172.974V172.655V172.336V172.017V171.698V171.38V171.061V170.743V170.426V170.108V169.791V169.474V169.157V168.84V168.524V168.208V167.892V167.576V167.26V166.945V166.63V166.315V166V165.685V165.371V165.057V164.743V164.429V164.115V163.802V163.488V163.175V162.862V162.549V162.237V161.924V161.612V161.3V160.988V160.676V160.364V160.053V159.742V159.43V159.119V158.808V158.497V158.187V157.876V157.566V157.256V156.945V156.635V156.326V156.016V155.706V155.397V155.087V154.778V154.469V154.16V153.851V153.542V153.233V152.924V152.616V152.307V151.999V151.69V151.382V151.074V150.766V150.458V150.15V149.842V149.535V149.227V148.919V148.612V148.304V147.997V147.689V147.382V147.075V146.768V146.46V146.153V145.846V145.539V145.232V144.925V144.618V144.312V144.005V143.698V143.391V143.084V142.778V142.471V142.164V141.858V141.551V141.244V140.938V140.631V140.324V140.018V139.711V139.404V139.098V138.791V138.484V138.178V137.871V137.564V137.258V136.951V136.644V136.337V136.03V135.724V135.417V135.11V134.803V134.496V134.189V133.882V133.575V133.267V132.96V132.653V132.345V132.038V131.731V131.423V131.115V130.808V130.5V130.192V129.884V129.576V129.268V128.96V128.652V128.344V128.035V127.727V127.418V127.11V126.801V126.492V126.183V125.874V125.565V125.256V124.946V124.637V124.327V124.017V123.707V123.397V123.087V122.777V122.467V122.156V121.846V121.535V116.542V115.915V115.601V115.287V114.659V114.029V113.399V113.084V112.768V112.137V111.504V111.188V110.871V110.237V109.601V109.283V108.965V108.328V107.69V107.371V107.052V106.732V106.412V106.091V105.771V105.45V105.129V104.808V104.486V104.164V103.842V103.52V103.197V102.874V102.551V102.228V101.904V101.58V101.255V100.931V100.606V100.281V99.9553V99.6295V99.3034V98.977V98.6504V98.3234V97.9961V97.6685V97.3406V97.0123V96.6838V96.3549V96.0257V95.6962V95.3664V95.0362V94.7057V94.3749V94.0437V93.7122V93.3804V93.0482V92.7157V92.3828V92.0496V91.716V91.3821V91.0478V90.7132V90.3782V90.0428V89.7071V89.371V89.0345V88.6977V88.3605V88.0229V87.6849V87.3466V87.0079V86.6688V86.3292V85.9894V85.6491V85.3084V84.9673V84.6258V84.2839V83.9417V83.599V83.2559V82.9124V82.5684V82.2241V81.8793V81.5342V81.1885V80.8425V80.4961V80.1492V79.8019V79.4541V79.1059V78.7573V78.4082V78.0587V77.7088V77.3584V77.0075V76.6562V76.3045V75.9522V75.5996V75.2464V74.8928V74.5387V74.1842V73.8292V73.4737V73.1177V72.7613V72.4044V72.047V71.6891V71.3307V70.9719V70.6125V70.2527V69.8923V69.5315V69.1701V68.8083V68.4459V68.0831V67.7197V67.3558V66.9914V66.6265V66.2611V65.8951V65.5286V65.1616V64.7941V64.426V64.0574V63.6883V63.3186V62.9484V62.5776V62.2063V61.8345V61.4621V61.0891V60.7156V60.3416V59.967V59.5918V59.216V58.8397V58.4629V58.0854V57.7074V57.3288V56.9496V56.5699V56.1895V55.8086V55.4271V55.045V54.6624V54.2791V53.8952V53.5107V53.1257V52.74V52.3537V51.9668V51.5794V51.1912V50.8025V50.4132V50.0232V49.6327V49.2415V48.8497V48.4572V48.0641V47.6704V47.2761V46.8811V46.4855V46.0892V45.6923V45.2947V44.8965V44.4977V44.0982V43.698V43.2972V42.8957V42.4935V42.0907V41.6873V41.2831V40.8783V40.4728V40.0666V39.6598V39.2523V38.8441V38.4352V38.0256V37.6153C21.4163 27.3958 29.7012 19.0922 39.9163 19.0922H616.083C626.301 19.0922 634.583 27.375 634.583 37.5922V207.166Z" stroke="url(#paint2_linear_35_472)" stroke-width="3"/>
<path d="M58.12 96.8C58.12 94.6027 58.6107 92.64 59.592 90.912C60.5947 89.1627 61.9493 87.808 63.656 86.848C65.384 85.8667 67.3147 85.376 69.448 85.376C71.944 85.376 74.1307 86.016 76.008 87.296C77.8853 88.576 79.1973 90.3467 79.944 92.608H74.792C74.28 91.5413 73.5547 90.7413 72.616 90.208C71.6987 89.6747 70.632 89.408 69.416 89.408C68.1147 89.408 66.952 89.7173 65.928 90.336C64.9253 90.9333 64.136 91.7867 63.56 92.896C63.0053 94.0053 62.728 95.3067 62.728 96.8C62.728 98.272 63.0053 99.5733 63.56 100.704C64.136 101.813 64.9253 102.677 65.928 103.296C66.952 103.893 68.1147 104.192 69.416 104.192C70.632 104.192 71.6987 103.925 72.616 103.392C73.5547 102.837 74.28 102.027 74.792 100.96H79.944C79.1973 103.243 77.8853 105.024 76.008 106.304C74.152 107.563 71.9653 108.192 69.448 108.192C67.3147 108.192 65.384 107.712 63.656 106.752C61.9493 105.771 60.5947 104.416 59.592 102.688C58.6107 100.96 58.12 98.9973 58.12 96.8ZM91.6425 108.288C89.9358 108.288 88.3998 107.915 87.0345 107.168C85.6692 106.4 84.5918 105.323 83.8025 103.936C83.0345 102.549 82.6505 100.949 82.6505 99.136C82.6505 97.3227 83.0452 95.7227 83.8345 94.336C84.6452 92.9493 85.7438 91.8827 87.1305 91.136C88.5172 90.368 90.0638 89.984 91.7705 89.984C93.4772 89.984 95.0238 90.368 96.4105 91.136C97.7972 91.8827 98.8852 92.9493 99.6745 94.336C100.485 95.7227 100.891 97.3227 100.891 99.136C100.891 100.949 100.475 102.549 99.6425 103.936C98.8318 105.323 97.7225 106.4 96.3145 107.168C94.9278 107.915 93.3705 108.288 91.6425 108.288ZM91.6425 104.384C92.4532 104.384 93.2105 104.192 93.9145 103.808C94.6398 103.403 95.2158 102.805 95.6425 102.016C96.0692 101.227 96.2825 100.267 96.2825 99.136C96.2825 97.4507 95.8345 96.16 94.9385 95.264C94.0638 94.3467 92.9865 93.888 91.7065 93.888C90.4265 93.888 89.3492 94.3467 88.4745 95.264C87.6212 96.16 87.1945 97.4507 87.1945 99.136C87.1945 100.821 87.6105 102.123 88.4425 103.04C89.2958 103.936 90.3625 104.384 91.6425 104.384ZM126.193 90.016C128.369 90.016 130.118 90.688 131.441 92.032C132.785 93.3547 133.457 95.2107 133.457 97.6V108H128.977V98.208C128.977 96.8213 128.625 95.7653 127.921 95.04C127.217 94.2933 126.257 93.92 125.041 93.92C123.825 93.92 122.854 94.2933 122.129 95.04C121.425 95.7653 121.073 96.8213 121.073 98.208V108H116.593V98.208C116.593 96.8213 116.241 95.7653 115.537 95.04C114.833 94.2933 113.873 93.92 112.657 93.92C111.419 93.92 110.438 94.2933 109.713 95.04C109.009 95.7653 108.657 96.8213 108.657 98.208V108H104.177V90.272H108.657V92.416C109.233 91.6693 109.969 91.0827 110.865 90.656C111.782 90.2293 112.785 90.016 113.873 90.016C115.259 90.016 116.497 90.3147 117.585 90.912C118.673 91.488 119.515 92.32 120.113 93.408C120.689 92.384 121.521 91.5627 122.609 90.944C123.718 90.3253 124.913 90.016 126.193 90.016ZM159.724 90.016C161.9 90.016 163.649 90.688 164.972 92.032C166.316 93.3547 166.988 95.2107 166.988 97.6V108H162.508V98.208C162.508 96.8213 162.156 95.7653 161.452 95.04C160.748 94.2933 159.788 93.92 158.572 93.92C157.356 93.92 156.385 94.2933 155.66 95.04C154.956 95.7653 154.604 96.8213 154.604 98.208V108H150.124V98.208C150.124 96.8213 149.772 95.7653 149.068 95.04C148.364 94.2933 147.404 93.92 146.188 93.92C144.951 93.92 143.969 94.2933 143.244 95.04C142.54 95.7653 142.188 96.8213 142.188 98.208V108H137.708V90.272H142.188V92.416C142.764 91.6693 143.5 91.0827 144.396 90.656C145.313 90.2293 146.316 90.016 147.404 90.016C148.791 90.016 150.028 90.3147 151.116 90.912C152.204 91.488 153.047 92.32 153.644 93.408C154.22 92.384 155.052 91.5627 156.14 90.944C157.249 90.3253 158.444 90.016 159.724 90.016ZM187.975 90.272V108H183.463V105.76C182.887 106.528 182.13 107.136 181.191 107.584C180.274 108.011 179.271 108.224 178.183 108.224C176.797 108.224 175.57 107.936 174.503 107.36C173.437 106.763 172.594 105.899 171.975 104.768C171.378 103.616 171.079 102.251 171.079 100.672V90.272H175.559V100.032C175.559 101.44 175.911 102.528 176.615 103.296C177.319 104.043 178.279 104.416 179.495 104.416C180.733 104.416 181.703 104.043 182.407 103.296C183.111 102.528 183.463 101.44 183.463 100.032V90.272H187.975ZM202.22 90.016C204.332 90.016 206.038 90.688 207.34 92.032C208.641 93.3547 209.292 95.2107 209.292 97.6V108H204.812V98.208C204.812 96.8 204.46 95.7227 203.756 94.976C203.052 94.208 202.092 93.824 200.876 93.824C199.638 93.824 198.657 94.208 197.932 94.976C197.228 95.7227 196.876 96.8 196.876 98.208V108H192.396V90.272H196.876V92.48C197.473 91.712 198.23 91.1147 199.148 90.688C200.086 90.24 201.11 90.016 202.22 90.016ZM215.824 88.16C215.034 88.16 214.373 87.9147 213.84 87.424C213.328 86.912 213.072 86.2827 213.072 85.536C213.072 84.7893 213.328 84.1707 213.84 83.68C214.373 83.168 215.034 82.912 215.824 82.912C216.613 82.912 217.264 83.168 217.776 83.68C218.309 84.1707 218.576 84.7893 218.576 85.536C218.576 86.2827 218.309 86.912 217.776 87.424C217.264 87.9147 216.613 88.16 215.824 88.16ZM218.032 90.272V108H213.552V90.272H218.032ZM227.674 93.952V102.528C227.674 103.125 227.813 103.563 228.09 103.84C228.389 104.096 228.879 104.224 229.562 104.224H231.642V108H228.826C225.05 108 223.162 106.165 223.162 102.496V93.952H221.05V90.272H223.162V85.888H227.674V90.272H231.642V93.952H227.674ZM251.824 90.272L240.848 116.384H236.08L239.92 107.552L232.816 90.272H237.84L242.416 102.656L247.056 90.272H251.824ZM278.152 92.576C278.152 93.7707 277.864 94.8907 277.288 95.936C276.734 96.9813 275.848 97.824 274.632 98.464C273.438 99.104 271.923 99.424 270.088 99.424H266.344V108H261.864V85.664H270.088C271.816 85.664 273.288 85.9627 274.504 86.56C275.72 87.1573 276.627 87.9787 277.224 89.024C277.843 90.0693 278.152 91.2533 278.152 92.576ZM269.896 95.808C271.134 95.808 272.051 95.5307 272.648 94.976C273.246 94.4 273.544 93.6 273.544 92.576C273.544 90.4 272.328 89.312 269.896 89.312H266.344V95.808H269.896ZM280.181 99.072C280.181 97.28 280.533 95.6907 281.237 94.304C281.962 92.9173 282.933 91.8507 284.149 91.104C285.386 90.3573 286.762 89.984 288.277 89.984C289.6 89.984 290.752 90.2507 291.733 90.784C292.736 91.3173 293.536 91.9893 294.133 92.8V90.272H298.645V108H294.133V105.408C293.557 106.24 292.757 106.933 291.733 107.488C290.73 108.021 289.568 108.288 288.245 108.288C286.752 108.288 285.386 107.904 284.149 107.136C282.933 106.368 281.962 105.291 281.237 103.904C280.533 102.496 280.181 100.885 280.181 99.072ZM294.133 99.136C294.133 98.048 293.92 97.12 293.493 96.352C293.066 95.5627 292.49 94.9653 291.765 94.56C291.04 94.1333 290.261 93.92 289.429 93.92C288.597 93.92 287.829 94.1227 287.125 94.528C286.421 94.9333 285.845 95.5307 285.397 96.32C284.97 97.088 284.757 98.0053 284.757 99.072C284.757 100.139 284.97 101.077 285.397 101.888C285.845 102.677 286.421 103.285 287.125 103.712C287.85 104.139 288.618 104.352 289.429 104.352C290.261 104.352 291.04 104.149 291.765 103.744C292.49 103.317 293.066 102.72 293.493 101.952C293.92 101.163 294.133 100.224 294.133 99.136ZM309.805 108.288C308.354 108.288 307.053 108.032 305.901 107.52C304.749 106.987 303.831 106.272 303.149 105.376C302.487 104.48 302.125 103.488 302.061 102.4H306.573C306.658 103.083 306.989 103.648 307.565 104.096C308.162 104.544 308.898 104.768 309.773 104.768C310.626 104.768 311.287 104.597 311.757 104.256C312.247 103.915 312.493 103.477 312.493 102.944C312.493 102.368 312.194 101.941 311.597 101.664C311.021 101.365 310.093 101.045 308.812 100.704C307.49 100.384 306.402 100.053 305.549 99.712C304.717 99.3707 303.991 98.848 303.373 98.144C302.775 97.44 302.477 96.4907 302.477 95.296C302.477 94.3147 302.754 93.4187 303.309 92.608C303.885 91.7973 304.695 91.1573 305.741 90.688C306.807 90.2187 308.055 89.984 309.485 89.984C311.597 89.984 313.282 90.5173 314.541 91.584C315.799 92.6293 316.493 94.048 316.621 95.84H312.333C312.269 95.136 311.97 94.5813 311.437 94.176C310.925 93.7493 310.231 93.536 309.357 93.536C308.546 93.536 307.917 93.6853 307.469 93.984C307.042 94.2827 306.829 94.6987 306.829 95.232C306.829 95.8293 307.127 96.288 307.725 96.608C308.322 96.9067 309.25 97.216 310.509 97.536C311.789 97.856 312.845 98.1867 313.677 98.528C314.509 98.8693 315.223 99.4027 315.821 100.128C316.439 100.832 316.759 101.771 316.781 102.944C316.781 103.968 316.493 104.885 315.917 105.696C315.362 106.507 314.551 107.147 313.485 107.616C312.439 108.064 311.213 108.288 309.805 108.288ZM327.242 108.288C325.791 108.288 324.49 108.032 323.338 107.52C322.186 106.987 321.269 106.272 320.586 105.376C319.925 104.48 319.562 103.488 319.498 102.4H324.01C324.095 103.083 324.426 103.648 325.002 104.096C325.599 104.544 326.335 104.768 327.21 104.768C328.063 104.768 328.725 104.597 329.194 104.256C329.685 103.915 329.93 103.477 329.93 102.944C329.93 102.368 329.631 101.941 329.034 101.664C328.458 101.365 327.53 101.045 326.25 100.704C324.927 100.384 323.839 100.053 322.986 99.712C322.154 99.3707 321.429 98.848 320.81 98.144C320.213 97.44 319.914 96.4907 319.914 95.296C319.914 94.3147 320.191 93.4187 320.746 92.608C321.322 91.7973 322.133 91.1573 323.178 90.688C324.245 90.2187 325.493 89.984 326.922 89.984C329.034 89.984 330.719 90.5173 331.978 91.584C333.237 92.6293 333.93 94.048 334.058 95.84H329.77C329.706 95.136 329.407 94.5813 328.874 94.176C328.362 93.7493 327.669 93.536 326.794 93.536C325.983 93.536 325.354 93.6853 324.906 93.984C324.479 94.2827 324.266 94.6987 324.266 95.232C324.266 95.8293 324.565 96.288 325.162 96.608C325.759 96.9067 326.687 97.216 327.946 97.536C329.226 97.856 330.282 98.1867 331.114 98.528C331.946 98.8693 332.661 99.4027 333.258 100.128C333.877 100.832 334.197 101.771 334.218 102.944C334.218 103.968 333.93 104.885 333.354 105.696C332.799 106.507 331.989 107.147 330.922 107.616C329.877 108.064 328.65 108.288 327.242 108.288ZM365.201 93.632L364.145 98.56H368.209V102.56H363.281L362.128 108H357.873L359.025 102.56H353.201L352.049 108H347.825L348.977 102.56H344.145V98.56H349.841L350.897 93.632H346.097V89.632H351.76L352.881 84.32H357.105L355.985 89.632H361.809L362.929 84.32H367.185L366.065 89.632H370.161V93.632H365.201ZM360.944 93.632H355.121L354.065 98.56H359.889L360.944 93.632ZM373.448 90.816C373.554 88.6827 374.301 87.04 375.688 85.888C377.096 84.7147 378.941 84.128 381.224 84.128C382.781 84.128 384.114 84.4053 385.224 84.96C386.333 85.4933 387.165 86.2293 387.72 87.168C388.296 88.0853 388.583 89.1307 388.583 90.304C388.583 91.648 388.232 92.7893 387.528 93.728C386.845 94.6453 386.024 95.264 385.064 95.584V95.712C386.301 96.096 387.261 96.7787 387.944 97.76C388.648 98.7413 389 100 389 101.536C389 102.816 388.701 103.957 388.104 104.96C387.528 105.963 386.664 106.752 385.512 107.328C384.381 107.883 383.016 108.16 381.416 108.16C379.005 108.16 377.042 107.552 375.528 106.336C374.013 105.12 373.213 103.328 373.128 100.96H377.48C377.522 102.005 377.874 102.848 378.536 103.488C379.218 104.107 380.146 104.416 381.32 104.416C382.408 104.416 383.24 104.117 383.816 103.52C384.413 102.901 384.712 102.112 384.712 101.152C384.712 99.872 384.306 98.9547 383.496 98.4C382.685 97.8453 381.426 97.568 379.72 97.568H378.792V93.888H379.72C382.749 93.888 384.264 92.8747 384.264 90.848C384.264 89.9307 383.986 89.216 383.432 88.704C382.898 88.192 382.12 87.936 381.095 87.936C380.093 87.936 379.314 88.2133 378.76 88.768C378.226 89.3013 377.917 89.984 377.832 90.816H373.448ZM393.948 102.944C395.996 101.237 397.628 99.8187 398.844 98.688C400.06 97.536 401.073 96.3413 401.884 95.104C402.694 93.8667 403.1 92.6507 403.1 91.456C403.1 90.368 402.844 89.5147 402.332 88.896C401.82 88.2773 401.03 87.968 399.964 87.968C398.897 87.968 398.076 88.3307 397.5 89.056C396.924 89.76 396.625 90.7307 396.604 91.968H392.252C392.337 89.408 393.094 87.4667 394.524 86.144C395.974 84.8213 397.809 84.16 400.028 84.16C402.46 84.16 404.326 84.8107 405.628 86.112C406.929 87.392 407.58 89.088 407.58 91.2C407.58 92.864 407.132 94.4533 406.236 95.968C405.34 97.4827 404.316 98.8053 403.164 99.936C402.012 101.045 400.508 102.389 398.652 103.968H408.092V107.68H392.284V104.352L393.948 102.944ZM426.595 88.544H416.227V94.016C416.675 93.4613 417.315 93.0133 418.147 92.672C418.979 92.3093 419.864 92.128 420.803 92.128C422.509 92.128 423.907 92.5013 424.995 93.248C426.083 93.9947 426.872 94.9547 427.363 96.128C427.853 97.28 428.099 98.5173 428.099 99.84C428.099 102.293 427.395 104.267 425.987 105.76C424.6 107.253 422.616 108 420.035 108C417.603 108 415.661 107.392 414.211 106.176C412.76 104.96 411.939 103.371 411.747 101.408H416.099C416.291 102.261 416.717 102.944 417.379 103.456C418.061 103.968 418.925 104.224 419.971 104.224C421.229 104.224 422.179 103.829 422.819 103.04C423.459 102.251 423.779 101.205 423.779 99.904C423.779 98.5813 423.448 97.5787 422.787 96.896C422.147 96.192 421.197 95.84 419.939 95.84C419.043 95.84 418.296 96.064 417.699 96.512C417.101 96.96 416.675 97.5573 416.419 98.304H412.131V84.608H426.595V88.544Z" fill="#FFFEFE"/>
<path d="M66.3223 127.5L62.5768 134.661V139H61.0753V134.661L57.3133 127.5H58.9798L61.8178 133.324L64.6558 127.5H66.3223ZM74.3245 139.149C73.4775 139.149 72.7075 138.956 72.0145 138.571C71.3325 138.186 70.7935 137.642 70.3975 136.938C70.0125 136.223 69.82 135.398 69.82 134.463C69.82 133.539 70.018 132.725 70.414 132.021C70.821 131.306 71.371 130.761 72.064 130.387C72.757 130.002 73.5325 129.81 74.3905 129.81C75.2485 129.81 76.024 130.002 76.717 130.387C77.41 130.761 77.9545 131.3 78.3505 132.004C78.7575 132.708 78.961 133.528 78.961 134.463C78.961 135.398 78.752 136.223 78.334 136.938C77.927 137.642 77.3715 138.186 76.6675 138.571C75.9635 138.956 75.1825 139.149 74.3245 139.149ZM74.3245 137.829C74.8635 137.829 75.3695 137.702 75.8425 137.449C76.3155 137.196 76.695 136.817 76.981 136.311C77.278 135.805 77.4265 135.189 77.4265 134.463C77.4265 133.737 77.2835 133.121 76.9975 132.615C76.7115 132.109 76.3375 131.735 75.8755 131.493C75.4135 131.24 74.913 131.113 74.374 131.113C73.824 131.113 73.318 131.24 72.856 131.493C72.405 131.735 72.042 132.109 71.767 132.615C71.492 133.121 71.3545 133.737 71.3545 134.463C71.3545 135.2 71.4865 135.821 71.7505 136.327C72.0255 136.833 72.3885 137.213 72.8395 137.466C73.2905 137.708 73.7855 137.829 74.3245 137.829ZM91.4292 129.958V139H89.9277V137.664C89.6417 138.126 89.2402 138.489 88.7232 138.753C88.2172 139.006 87.6562 139.132 87.0402 139.132C86.3362 139.132 85.7037 138.989 85.1427 138.703C84.5817 138.406 84.1362 137.966 83.8062 137.383C83.4872 136.8 83.3277 136.091 83.3277 135.255V129.958H84.8127V135.057C84.8127 135.948 85.0382 136.635 85.4892 137.119C85.9402 137.592 86.5562 137.829 87.3372 137.829C88.1402 137.829 88.7727 137.581 89.2347 137.086C89.6967 136.591 89.9277 135.871 89.9277 134.925V129.958H91.4292ZM97.9409 131.427C98.2049 130.91 98.5789 130.508 99.0629 130.222C99.5579 129.936 100.157 129.793 100.861 129.793V131.344H100.465C98.7824 131.344 97.9409 132.257 97.9409 134.083V139H96.4394V129.958H97.9409V131.427ZM108.65 127.5C109.904 127.5 110.988 127.736 111.901 128.209C112.825 128.671 113.529 129.337 114.013 130.206C114.508 131.075 114.755 132.098 114.755 133.275C114.755 134.452 114.508 135.475 114.013 136.344C113.529 137.202 112.825 137.862 111.901 138.324C110.988 138.775 109.904 139 108.65 139H105.07V127.5H108.65ZM108.65 137.763C110.135 137.763 111.268 137.372 112.049 136.591C112.83 135.799 113.221 134.694 113.221 133.275C113.221 131.845 112.825 130.728 112.033 129.925C111.252 129.122 110.124 128.721 108.65 128.721H106.571V137.763H108.65ZM126.009 136.443H120.993L120.069 139H118.485L122.643 127.566H124.375L128.517 139H126.933L126.009 136.443ZM125.58 135.222L123.501 129.414L121.422 135.222H125.58ZM138.018 139.116C136.951 139.116 135.977 138.868 135.097 138.373C134.217 137.867 133.519 137.169 133.002 136.278C132.496 135.376 132.243 134.364 132.243 133.242C132.243 132.12 132.496 131.113 133.002 130.222C133.519 129.32 134.217 128.622 135.097 128.127C135.977 127.621 136.951 127.368 138.018 127.368C139.096 127.368 140.075 127.621 140.955 128.127C141.835 128.622 142.528 129.315 143.034 130.206C143.54 131.097 143.793 132.109 143.793 133.242C143.793 134.375 143.54 135.387 143.034 136.278C142.528 137.169 141.835 137.867 140.955 138.373C140.075 138.868 139.096 139.116 138.018 139.116ZM138.018 137.812C138.821 137.812 139.541 137.625 140.179 137.251C140.828 136.877 141.334 136.344 141.697 135.651C142.071 134.958 142.258 134.155 142.258 133.242C142.258 132.318 142.071 131.515 141.697 130.833C141.334 130.14 140.834 129.606 140.196 129.232C139.558 128.858 138.832 128.671 138.018 128.671C137.204 128.671 136.478 128.858 135.84 129.232C135.202 129.606 134.696 130.14 134.322 130.833C133.959 131.515 133.777 132.318 133.777 133.242C133.777 134.155 133.959 134.958 134.322 135.651C134.696 136.344 135.202 136.877 135.84 137.251C136.489 137.625 137.215 137.812 138.018 137.812Z" fill="#FFFEFE"/>
<path d="M57.6268 272.44V271.071H60.7288V283H59.2108V272.44H57.6268Z" fill="#FFFEFE"/>
<path d="M575.207 273.5L571.461 280.661V285H569.96V280.661L566.198 273.5H567.864L570.702 279.324L573.54 273.5H575.207ZM587.515 280.133C587.515 280.419 587.499 280.721 587.466 281.04H580.239C580.294 281.931 580.596 282.63 581.146 283.136C581.707 283.631 582.384 283.878 583.176 283.878C583.825 283.878 584.364 283.73 584.793 283.433C585.233 283.125 585.541 282.718 585.717 282.212H587.334C587.092 283.081 586.608 283.79 585.882 284.34C585.156 284.879 584.254 285.149 583.176 285.149C582.318 285.149 581.548 284.956 580.866 284.571C580.195 284.186 579.667 283.642 579.282 282.938C578.897 282.223 578.704 281.398 578.704 280.463C578.704 279.528 578.891 278.708 579.265 278.004C579.639 277.3 580.162 276.761 580.833 276.387C581.515 276.002 582.296 275.81 583.176 275.81C584.034 275.81 584.793 275.997 585.453 276.371C586.113 276.745 586.619 277.262 586.971 277.922C587.334 278.571 587.515 279.308 587.515 280.133ZM585.964 279.819C585.964 279.247 585.838 278.758 585.585 278.351C585.332 277.933 584.985 277.619 584.545 277.41C584.116 277.19 583.638 277.08 583.11 277.08C582.351 277.08 581.702 277.322 581.163 277.806C580.635 278.29 580.332 278.961 580.255 279.819H585.964ZM595.173 285.149C594.48 285.149 593.859 285.033 593.309 284.802C592.759 284.56 592.324 284.23 592.005 283.812C591.686 283.383 591.51 282.894 591.477 282.344H593.028C593.072 282.795 593.281 283.163 593.655 283.449C594.04 283.735 594.541 283.878 595.157 283.878C595.729 283.878 596.18 283.752 596.51 283.499C596.84 283.246 597.005 282.927 597.005 282.542C597.005 282.146 596.829 281.854 596.477 281.667C596.125 281.469 595.58 281.277 594.843 281.09C594.172 280.914 593.622 280.738 593.193 280.562C592.775 280.375 592.412 280.105 592.104 279.753C591.807 279.39 591.659 278.917 591.659 278.334C591.659 277.872 591.796 277.449 592.071 277.064C592.346 276.679 592.737 276.376 593.243 276.156C593.749 275.925 594.326 275.81 594.975 275.81C595.976 275.81 596.785 276.063 597.401 276.569C598.017 277.075 598.347 277.768 598.391 278.648H596.889C596.856 278.175 596.664 277.795 596.312 277.509C595.971 277.223 595.509 277.08 594.926 277.08C594.387 277.08 593.958 277.196 593.639 277.427C593.32 277.658 593.16 277.96 593.16 278.334C593.16 278.631 593.254 278.879 593.441 279.077C593.639 279.264 593.881 279.418 594.167 279.539C594.464 279.649 594.871 279.775 595.388 279.918C596.037 280.094 596.565 280.27 596.972 280.446C597.379 280.611 597.725 280.864 598.011 281.205C598.308 281.546 598.462 281.992 598.473 282.542C598.473 283.037 598.336 283.482 598.061 283.878C597.786 284.274 597.395 284.588 596.889 284.819C596.394 285.039 595.822 285.149 595.173 285.149Z" fill="#FFFEFE"/>
<circle cx="553.979" cy="279.979" r="4.97913" fill="#ABE77D"/>
<path d="M66.0618 230.399V231.443H62.5698V242.981H61.3098V231.443H57.7998V230.399H66.0618ZM69.3113 230.399V242.981H68.0513V230.399H69.3113ZM73.4246 231.425V236.123H78.1946V237.167H73.4246V241.937H78.7346V242.981H72.1646V230.381H78.7346V231.425H73.4246ZM87.9133 242.981L84.7993 237.725H82.4773V242.981H81.2173V230.399H84.9973C86.4013 230.399 87.4633 230.735 88.1833 231.407C88.9153 232.079 89.2813 232.961 89.2813 234.053C89.2813 234.965 89.0173 235.745 88.4893 236.393C87.9733 237.029 87.2053 237.443 86.1853 237.635L89.4253 242.981H87.9133ZM82.4773 236.699H85.0153C85.9993 236.699 86.7373 236.459 87.2293 235.979C87.7333 235.499 87.9853 234.857 87.9853 234.053C87.9853 233.225 87.7453 232.589 87.2653 232.145C86.7853 231.689 86.0293 231.461 84.9973 231.461H82.4773V236.699Z" fill="#FFFEFE"/>
<path d="M429.543 241.955H434.061V242.981H428.283V230.399H429.543V241.955ZM441.511 243.107C440.347 243.107 439.291 242.837 438.343 242.297C437.395 241.745 436.645 240.983 436.093 240.011C435.553 239.027 435.283 237.917 435.283 236.681C435.283 235.445 435.553 234.341 436.093 233.369C436.645 232.385 437.395 231.623 438.343 231.083C439.291 230.531 440.347 230.255 441.511 230.255C442.687 230.255 443.749 230.531 444.697 231.083C445.645 231.623 446.389 232.385 446.929 233.369C447.469 234.341 447.739 235.445 447.739 236.681C447.739 237.917 447.469 239.027 446.929 240.011C446.389 240.983 445.645 241.745 444.697 242.297C443.749 242.837 442.687 243.107 441.511 243.107ZM441.511 242.009C442.447 242.009 443.287 241.793 444.031 241.361C444.775 240.929 445.363 240.311 445.795 239.507C446.227 238.691 446.443 237.749 446.443 236.681C446.443 235.613 446.227 234.677 445.795 233.873C445.363 233.069 444.775 232.451 444.031 232.019C443.287 231.587 442.447 231.371 441.511 231.371C440.575 231.371 439.735 231.587 438.991 232.019C438.247 232.451 437.659 233.069 437.227 233.873C436.795 234.677 436.579 235.613 436.579 236.681C436.579 237.749 436.795 238.691 437.227 239.507C437.659 240.311 438.247 240.929 438.991 241.361C439.735 241.793 440.575 242.009 441.511 242.009ZM459.531 242.981H458.271L451.305 232.397V242.981H450.045V230.399H451.305L458.271 240.965V230.399H459.531V242.981ZM472.285 234.071C471.925 233.243 471.373 232.595 470.629 232.127C469.897 231.647 469.033 231.407 468.037 231.407C467.101 231.407 466.261 231.623 465.517 232.055C464.773 232.487 464.185 233.105 463.753 233.909C463.321 234.701 463.105 235.625 463.105 236.681C463.105 237.737 463.321 238.667 463.753 239.471C464.185 240.275 464.773 240.893 465.517 241.325C466.261 241.757 467.101 241.973 468.037 241.973C468.913 241.973 469.699 241.787 470.395 241.415C471.103 241.031 471.667 240.491 472.087 239.795C472.519 239.087 472.765 238.265 472.825 237.329H467.533V236.303H474.157V237.221C474.097 238.325 473.797 239.327 473.257 240.227C472.717 241.115 471.991 241.817 471.079 242.333C470.179 242.849 469.165 243.107 468.037 243.107C466.873 243.107 465.817 242.837 464.869 242.297C463.921 241.745 463.171 240.983 462.619 240.011C462.079 239.027 461.809 237.917 461.809 236.681C461.809 235.445 462.079 234.341 462.619 233.369C463.171 232.385 463.921 231.623 464.869 231.083C465.817 230.531 466.873 230.255 468.037 230.255C469.381 230.255 470.557 230.591 471.565 231.263C472.573 231.935 473.305 232.871 473.761 234.071H472.285ZM488.766 230.399V231.443H485.274V242.981H484.014V231.443H480.504V230.399H488.766ZM492.016 231.425V236.123H496.786V237.167H492.016V241.937H497.326V242.981H490.756V230.381H497.326V231.425H492.016ZM506.505 242.981L503.391 237.725H501.069V242.981H499.809V230.399H503.589C504.993 230.399 506.055 230.735 506.775 231.407C507.507 232.079 507.873 232.961 507.873 234.053C507.873 234.965 507.609 235.745 507.081 236.393C506.565 237.029 505.797 237.443 504.777 237.635L508.017 242.981H506.505ZM501.069 236.699H503.607C504.591 236.699 505.329 236.459 505.821 235.979C506.325 235.499 506.577 234.857 506.577 234.053C506.577 233.225 506.337 232.589 505.857 232.145C505.377 231.689 504.621 231.461 503.589 231.461H501.069V236.699ZM522.667 230.561V242.981H521.407V233.063L516.979 242.981H516.061L511.633 233.099V242.981H510.373V230.561H511.705L516.511 241.325L521.317 230.561H522.667ZM542.759 230.561V242.981H541.499V233.063L537.071 242.981H536.153L531.725 233.099V242.981H530.465V230.561H531.797L536.603 241.325L541.409 230.561H542.759ZM546.877 231.425V236.123H551.647V237.167H546.877V241.937H552.187V242.981H545.617V230.381H552.187V231.425H546.877ZM566.964 230.561V242.981H565.704V233.063L561.276 242.981H560.358L555.93 233.099V242.981H554.67V230.561H556.002L560.808 241.325L565.614 230.561H566.964ZM575.708 236.483C576.416 236.615 577.016 236.975 577.508 237.563C578 238.151 578.246 238.835 578.246 239.615C578.246 240.251 578.084 240.827 577.76 241.343C577.448 241.847 576.986 242.249 576.374 242.549C575.762 242.837 575.03 242.981 574.178 242.981H569.822V230.399H574.052C575.324 230.399 576.29 230.693 576.95 231.281C577.622 231.869 577.958 232.631 577.958 233.567C577.958 234.347 577.748 234.983 577.328 235.475C576.908 235.955 576.368 236.291 575.708 236.483ZM571.082 235.961H574.016C574.868 235.961 575.522 235.763 575.978 235.367C576.446 234.959 576.68 234.401 576.68 233.693C576.68 232.997 576.446 232.451 575.978 232.055C575.522 231.659 574.85 231.461 573.962 231.461H571.082V235.961ZM574.088 241.919C575 241.919 575.708 241.703 576.212 241.271C576.728 240.839 576.986 240.245 576.986 239.489C576.986 238.733 576.716 238.133 576.176 237.689C575.648 237.233 574.934 237.005 574.034 237.005H571.082V241.919H574.088ZM581.823 231.425V236.123H586.593V237.167H581.823V241.937H587.133V242.981H580.563V230.381H587.133V231.425H581.823ZM596.311 242.981L593.197 237.725H590.875V242.981H589.615V230.399H593.395C594.799 230.399 595.861 230.735 596.581 231.407C597.313 232.079 597.679 232.961 597.679 234.053C597.679 234.965 597.415 235.745 596.887 236.393C596.371 237.029 595.603 237.443 594.583 237.635L597.823 242.981H596.311ZM590.875 236.699H593.413C594.397 236.699 595.135 236.459 595.627 235.979C596.131 235.499 596.383 234.857 596.383 234.053C596.383 233.225 596.143 232.589 595.663 232.145C595.183 231.689 594.427 231.461 593.395 231.461H590.875V236.699Z" fill="#FFFEFE"/>
<defs>
<linearGradient id="paint0_linear_35_472" x1="-0.000244141" y1="176.924" x2="656" y2="176.924" gradientUnits="userSpaceOnUse">
<stop stop-color="#2E2E2E"/>
<stop offset="0.484375" stop-color="#4E4E4E"/>
<stop offset="0.984375" stop-color="#2F2F2F"/>
</linearGradient>
<linearGradient id="paint1_linear_35_472" x1="19.9163" y1="176.924" x2="636.083" y2="176.924" gradientUnits="userSpaceOnUse">
<stop stop-color="white" stop-opacity="0.3"/>
<stop offset="0.411458" stop-color="white"/>
<stop offset="1" stop-color="white" stop-opacity="0.3"/>
</linearGradient>
<linearGradient id="paint2_linear_35_472" x1="19.9163" y1="176.924" x2="636.083" y2="176.924" gradientUnits="userSpaceOnUse">
<stop stop-color="white" stop-opacity="0.3"/>
<stop offset="0.411458" stop-color="white"/>
<stop offset="0.619792" stop-color="white"/>
<stop offset="1" stop-color="white" stop-opacity="0.3"/>
</linearGradient>
</defs>
</svg>
