<svg width="126" height="128" viewBox="0 0 126 128" fill="none" xmlns="http://www.w3.org/2000/svg">
<path d="M105 53C105 39.2087 99.5214 25.9823 89.7696 16.2304C80.0177 6.47856 66.7913 1 53 1C39.2087 1 25.9823 6.47856 16.2304 16.2304C6.47856 25.9823 1 39.2087 1 53C1 89.63 38.11 115 72.24 101.32C81.9091 97.4692 90.2001 90.8055 96.0406 82.191C101.881 73.5765 105.002 63.4077 105 53V53Z" fill="url(#paint0_linear_35_508)"/>
<path d="M72.25 101.3C36.25 115.3 -0.65001 87.38 1.04999 51.06C1.44857 61.1033 4.74929 70.8158 10.5527 79.0222C16.3562 87.2287 24.4136 93.5774 33.75 97.3V97.3C46.1077 102.205 59.8723 102.205 72.23 97.3C81.5765 93.5895 89.6465 87.2485 95.4628 79.0451C101.279 70.8417 104.592 61.1278 105 51.08C105.392 61.8075 102.455 72.3935 96.5913 81.3851C90.7276 90.3767 82.2248 97.3333 72.25 101.3V101.3Z" fill="#5B8DC9"/>
<path d="M97 53C96.9895 44.2083 94.3455 35.6213 89.4088 28.3463C84.4722 21.0714 77.4694 15.4421 69.3035 12.1845C61.1375 8.92688 52.1829 8.19025 43.5944 10.0696C35.0059 11.949 27.1773 16.3582 21.1182 22.7286C15.059 29.0989 11.0473 37.1384 9.60016 45.8103C8.15305 54.4821 9.33699 63.3886 12.9993 71.3813C16.6616 79.3739 22.6343 86.0862 30.1472 90.6524C37.6602 95.2187 46.3688 97.4296 55.15 97C66.4429 96.4475 77.0897 91.5691 84.8819 83.3766C92.6741 75.1841 97.0135 64.3064 97 53V53Z" fill="url(#paint1_linear_35_508)"/>
<path d="M97 55C96.4612 43.7064 91.5955 33.0536 83.4123 25.2515C75.2291 17.4495 64.3565 13.097 53.05 13.097C41.7436 13.097 30.871 17.4495 22.6878 25.2515C14.5046 33.0536 9.6389 43.7064 9.10004 55C7.59004 30.94 27.28 9 53 9C78.72 9 98.41 30.91 97 55Z" fill="#C7CDD8"/>
<path d="M125 119H67V127H125V119Z" fill="url(#paint2_linear_35_508)"/>
<path d="M125 53H67V61H125V53Z" fill="url(#paint3_linear_35_508)"/>
<path d="M125 58H67V61H125V58Z" fill="#8A6762"/>
<path d="M125 124H67V127H125V124Z" fill="#8A6762"/>
<path d="M122 71.46V61H70.0001V71.46C69.9926 73.3461 70.4094 75.2097 71.2195 76.913C72.0295 78.6163 73.2123 80.1156 74.6801 81.3L85.6001 90L74.6801 98.7C73.2123 99.8844 72.0295 101.384 71.2195 103.087C70.4094 104.79 69.9926 106.654 70.0001 108.54V119H122V108.54C122.008 106.654 121.591 104.79 120.781 103.087C119.971 101.384 118.788 99.8844 117.32 98.7L106.4 90L117.32 81.3C118.788 80.1156 119.971 78.6163 120.781 76.913C121.591 75.2097 122.008 73.3461 122 71.46V71.46Z" fill="url(#paint4_linear_35_508)"/>
<path d="M122 115H70V119H122V115Z" fill="#77CACB"/>
<path d="M78.92 77C90.1045 80.0601 101.906 80.0601 113.09 77C96.66 90.09 97 89.36 96 92C95 89.27 95.08 89.88 78.92 77Z" fill="url(#paint5_linear_35_508)"/>
<path d="M116 119H76L96 99L116 119Z" fill="url(#paint6_linear_35_508)"/>
<path d="M116 119C73.72 119 76.1 119 76 119C87 113.68 104.92 113.65 116 119Z" fill="#CBA07A"/>
<path d="M123 71.46V62H125C125.265 62 125.52 61.8946 125.707 61.7071C125.895 61.5196 126 61.2652 126 61V53C126 52.7348 125.895 52.4804 125.707 52.2929C125.52 52.1053 125.265 52 125 52H106C105.867 37.9435 100.156 24.5154 90.1232 14.6698C80.09 4.82411 66.5565 -0.632627 52.5 -0.500019C38.4436 -0.36741 25.0155 5.34368 15.1698 15.3769C5.32417 25.4101 -0.132566 38.9435 4.22888e-05 53C4.22888e-05 89.31 35.87 114.89 70.1 103.2C68.7 106.5 69 107.75 69 118H67C66.7348 118 66.4805 118.105 66.2929 118.293C66.1054 118.48 66 118.735 66 119V127C66 127.265 66.1054 127.52 66.2929 127.707C66.4805 127.895 66.7348 128 67 128H125C125.265 128 125.52 127.895 125.707 127.707C125.895 127.52 126 127.265 126 127V119C126 118.735 125.895 118.48 125.707 118.293C125.52 118.105 125.265 118 125 118H123V108.56C123.013 106.524 122.57 104.512 121.705 102.669C120.84 100.826 119.574 99.2005 118 97.91L108 90L118 82.09C119.572 80.8016 120.836 79.1789 121.701 77.3399C122.566 75.501 123.01 73.4922 123 71.46V71.46ZM124 60H68V54H124V60ZM67 62H69V71.44C68.9873 73.4756 69.4296 75.4882 70.2947 77.3309C71.1598 79.1735 72.4258 80.7995 74 82.09L79.7 86.64C51.87 108.81 10 89.1 10 53C9.86743 41.5957 14.2706 30.6058 22.2409 22.4479C30.2112 14.2901 41.0957 9.63259 52.5 9.49998C63.9044 9.36737 74.8943 13.7705 83.0521 21.7408C91.2099 29.7111 95.8674 40.5957 96 52H67C66.7348 52 66.4805 52.1053 66.2929 52.2929C66.1054 52.4804 66 52.7348 66 53V61C66 61.2652 66.1054 61.5196 66.2929 61.7071C66.4805 61.8946 66.7348 62 67 62ZM2.00004 53C1.86743 39.4739 7.11346 26.4492 16.584 16.7911C26.0546 7.13297 38.974 1.63259 52.5 1.49998C66.0261 1.36737 79.0508 6.6134 88.7089 16.084C98.3671 25.5546 103.867 38.4739 104 52H98C97.8674 40.0652 92.9992 28.672 84.4663 20.3266C75.9334 11.9813 64.4348 7.36737 52.5 7.49998C40.5653 7.63259 29.1721 12.5008 20.8267 21.0337C12.4813 29.5666 7.86743 41.0652 8.00004 53C8.00004 91 52.21 111.66 81.39 87.94L84 90C73.22 98.59 73.11 98.47 71.67 100.46C38.43 113.55 2.00004 89 2.00004 53ZM124 126H68V120H124V126ZM96 89.78C95 88.31 95.17 88.64 83.1 79.02C91.6184 80.7299 100.392 80.7299 108.91 79.02C96.5 88.91 96.94 88.4 96 89.78ZM96 100.44L113.54 118H78.46L96 100.44ZM116.69 80.5C104.9 89.89 105.38 89.3 105.38 90C105.38 90.7 104.95 90.15 116.69 99.5C118.029 100.587 119.108 101.959 119.85 103.516C120.592 105.073 120.978 106.775 120.98 108.5V118H116.42L96.9 98.46C97.07 98.13 97.02 98.52 97.02 92.19C97.84 90.09 97.46 90.75 113.73 77.8C113.967 77.6793 114.147 77.4693 114.23 77.2161C114.312 76.9629 114.291 76.6874 114.17 76.45C114.049 76.2126 113.839 76.0329 113.586 75.9504C113.333 75.8679 113.057 75.8893 112.82 76.01C101.812 79.0201 90.198 79.0201 79.19 76.01C78.9527 75.8893 78.6771 75.8679 78.4239 75.9504C78.1707 76.0329 77.9607 76.2126 77.84 76.45C77.7194 76.6874 77.6979 76.9629 77.7804 77.2161C77.863 77.4693 78.0427 77.6793 78.28 77.8C94.49 90.71 94.16 90.09 95 92.19V98C95 98.83 97.59 96 75.6 118H71V108.56C71.0018 106.835 71.3877 105.133 72.1298 103.576C72.8718 102.019 73.9514 100.647 75.29 99.56L86.22 90.86C86.3442 90.7668 86.445 90.6461 86.5145 90.5072C86.5839 90.3683 86.62 90.2152 86.62 90.06C86.62 89.9047 86.5839 89.7516 86.5145 89.6128C86.445 89.4739 86.3442 89.3531 86.22 89.26L75.31 80.5C73.9714 79.4126 72.8918 78.0407 72.1498 76.4839C71.4077 74.9271 71.0218 73.2246 71.02 71.5V62H121.02V71.44C121.022 73.1779 120.635 74.8943 119.885 76.4623C119.136 78.0304 118.044 79.4102 116.69 80.5V80.5Z" fill="#27272A"/>
<path d="M54 15V13C54 12.7348 53.8946 12.4804 53.7071 12.2929C53.5196 12.1054 53.2652 12 53 12C52.7348 12 52.4804 12.1054 52.2929 12.2929C52.1054 12.4804 52 12.7348 52 13V15C52 15.2652 52.1054 15.5196 52.2929 15.7071C52.4804 15.8946 52.7348 16 53 16C53.2652 16 53.5196 15.8946 53.7071 15.7071C53.8946 15.5196 54 15.2652 54 15Z" fill="#27272A"/>
<path d="M52 91V93C52 93.2652 52.1054 93.5196 52.2929 93.7071C52.4804 93.8946 52.7348 94 53 94C53.2652 94 53.5196 93.8946 53.7071 93.7071C53.8946 93.5196 54 93.2652 54 93V91C54 90.7348 53.8946 90.4804 53.7071 90.2929C53.5196 90.1054 53.2652 90 53 90C52.7348 90 52.4804 90.1054 52.2929 90.2929C52.1054 90.4804 52 90.7348 52 91Z" fill="#27272A"/>
<path d="M15 52H13C12.7348 52 12.4804 52.1054 12.2929 52.2929C12.1054 52.4804 12 52.7348 12 53C12 53.2652 12.1054 53.5196 12.2929 53.7071C12.4804 53.8946 12.7348 54 13 54H15C15.2652 54 15.5196 53.8946 15.7071 53.7071C15.8946 53.5196 16 53.2652 16 53C16 52.7348 15.8946 52.4804 15.7071 52.2929C15.5196 52.1054 15.2652 52 15 52Z" fill="#27272A"/>
<path d="M33.5 19.22C33.7177 19.0816 33.8735 18.8645 33.9348 18.6139C33.9962 18.3634 33.9584 18.0989 33.8293 17.8756C33.7002 17.6523 33.4899 17.4875 33.2422 17.4156C32.9945 17.3438 32.7286 17.3704 32.5 17.49C32.2824 17.6283 32.1266 17.8454 32.0652 18.096C32.0039 18.3465 32.0417 18.611 32.1707 18.8343C32.2998 19.0576 32.5102 19.2224 32.7579 19.2943C33.0056 19.3661 33.2715 19.3395 33.5 19.22V19.22Z" fill="#27272A"/>
<path d="M73.5 88.51C73.7308 88.3774 73.8994 88.1585 73.9688 87.9016C74.0382 87.6447 74.0026 87.3707 73.87 87.14C73.7374 86.9092 73.5186 86.7406 73.2617 86.6712C73.0047 86.6019 72.7308 86.6374 72.5 86.77C72.2693 86.9026 72.1007 87.1214 72.0313 87.3784C71.9619 87.6353 71.9974 87.9092 72.13 88.14C72.2626 88.3707 72.4815 88.5393 72.7384 88.6087C72.9953 88.6781 73.2693 88.6426 73.5 88.51Z" fill="#27272A"/>
<path d="M72.5 19.22C72.7286 19.3395 72.9945 19.3661 73.2422 19.2943C73.4899 19.2224 73.7002 19.0576 73.8293 18.8343C73.9584 18.611 73.9962 18.3465 73.9348 18.096C73.8735 17.8454 73.7177 17.6283 73.5 17.49C73.2715 17.3704 73.0056 17.3438 72.7579 17.4156C72.5102 17.4875 72.2998 17.6523 72.1707 17.8756C72.0417 18.0989 72.0039 18.3634 72.0652 18.6139C72.1266 18.8645 72.2824 19.0816 72.5 19.22Z" fill="#27272A"/>
<path d="M33.5 86.77C33.2693 86.6374 32.9953 86.6019 32.7384 86.6712C32.4815 86.7406 32.2626 86.9092 32.13 87.14C31.9974 87.3707 31.9619 87.6447 32.0313 87.9016C32.1007 88.1585 32.2693 88.3774 32.5 88.51C32.7308 88.6426 33.0047 88.6781 33.2617 88.6087C33.5186 88.5393 33.7374 88.3707 33.87 88.14C34.0026 87.9092 34.0382 87.6353 33.9688 87.3784C33.8994 87.1214 33.7308 86.9026 33.5 86.77V86.77Z" fill="#27272A"/>
<path d="M88.14 33.87C88.2543 33.8043 88.3545 33.7168 88.4349 33.6124C88.5153 33.508 88.5744 33.3888 88.6088 33.2616C88.6431 33.1344 88.6521 33.0016 88.6352 32.871C88.6182 32.7403 88.5757 32.6142 88.51 32.5C88.4444 32.3857 88.3569 32.2855 88.2525 32.2051C88.1481 32.1247 88.0289 32.0656 87.9017 32.0312C87.7745 31.9969 87.6417 31.9879 87.511 32.0048C87.3804 32.0218 87.2543 32.0643 87.14 32.13C86.9093 32.2626 86.7407 32.4814 86.6713 32.7383C86.6019 32.9953 86.6374 33.2692 86.77 33.5C86.9026 33.7307 87.1215 33.8993 87.3784 33.9687C87.6353 34.0381 87.9093 34.0026 88.14 33.87V33.87Z" fill="#27272A"/>
<path d="M17.86 72.13C17.6293 72.2626 17.4607 72.4814 17.3913 72.7383C17.3219 72.9953 17.3574 73.2692 17.49 73.5C17.6226 73.7307 17.8415 73.8993 18.0984 73.9687C18.3553 74.0381 18.6293 74.0026 18.86 73.87C19.0908 73.7374 19.2594 73.5185 19.3287 73.2616C19.3981 73.0047 19.3626 72.7307 19.23 72.5C19.0974 72.2692 18.8786 72.1006 18.6216 72.0312C18.3647 71.9618 18.0908 71.9974 17.86 72.13V72.13Z" fill="#27272A"/>
<path d="M18.86 32.13C18.6293 31.9974 18.3553 31.9618 18.0984 32.0312C17.8415 32.1006 17.6226 32.2692 17.49 32.5C17.3574 32.7307 17.3219 33.0047 17.3913 33.2616C17.4607 33.5185 17.6293 33.7374 17.86 33.87C17.9743 33.9356 18.1003 33.9781 18.231 33.9951C18.3617 34.012 18.4944 34.0031 18.6216 33.9687C18.7489 33.9343 18.8681 33.8753 18.9724 33.7948C19.0768 33.7144 19.1644 33.6142 19.23 33.5C19.2957 33.3857 19.3382 33.2597 19.3551 33.129C19.3721 32.9983 19.3631 32.8656 19.3287 32.7383C19.2944 32.6111 19.2353 32.4919 19.1549 32.3875C19.0745 32.2831 18.9743 32.1956 18.86 32.13V32.13Z" fill="#27272A"/>
<path d="M57 52H54.73C53.73 50.28 54.02 56.12 54.02 23C54.02 22.7348 53.9147 22.4804 53.7271 22.2929C53.5396 22.1054 53.2852 22 53.02 22C52.7548 22 52.5004 22.1054 52.3129 22.2929C52.1254 22.4804 52.02 22.7348 52.02 23V51.27C50.3 52.27 55.6 51.98 27.02 51.98C26.7548 51.98 26.5004 52.0854 26.3129 52.2729C26.1254 52.4604 26.02 52.7148 26.02 52.98C26.02 53.2452 26.1254 53.4996 26.3129 53.6871C26.5004 53.8746 26.7548 53.98 27.02 53.98C55.63 53.98 50.27 53.67 52.02 54.69V58C52.02 58.2652 52.1254 58.5196 52.3129 58.7071C52.5004 58.8946 52.7548 59 53.02 59C53.2852 59 53.5396 58.8946 53.7271 58.7071C53.9147 58.5196 54.02 58.2652 54.02 58V54.73C54.3173 54.5629 54.5629 54.3173 54.73 54.02H57C57.2679 54.02 57.5248 53.9136 57.7142 53.7242C57.9036 53.5348 58.01 53.2779 58.01 53.01C58.01 52.7421 57.9036 52.4852 57.7142 52.2958C57.5248 52.1064 57.2679 52 57 52Z" fill="#27272A"/>
<defs>
<linearGradient id="paint0_linear_35_508" x1="53" y1="105.07" x2="53" y2="1" gradientUnits="userSpaceOnUse">
<stop stop-color="#7AA8D7"/>
<stop offset="1" stop-color="#96C8EA"/>
</linearGradient>
<linearGradient id="paint1_linear_35_508" x1="53" y1="97" x2="53" y2="9.00001" gradientUnits="userSpaceOnUse">
<stop stop-color="#DDE1E8"/>
<stop offset="1" stop-color="#F3F4F5"/>
</linearGradient>
<linearGradient id="paint2_linear_35_508" x1="96" y1="127" x2="96" y2="119" gradientUnits="userSpaceOnUse">
<stop stop-color="#9B756D"/>
<stop offset="1" stop-color="#BC9388"/>
</linearGradient>
<linearGradient id="paint3_linear_35_508" x1="67" y1="541" x2="68.1204" y2="476.019" gradientUnits="userSpaceOnUse">
<stop stop-color="#9B756D"/>
<stop offset="1" stop-color="#BC9388"/>
</linearGradient>
<linearGradient id="paint4_linear_35_508" x1="96.0001" y1="119" x2="96.0001" y2="61" gradientUnits="userSpaceOnUse">
<stop stop-color="#9DD5DF"/>
<stop offset="1" stop-color="#C3E1F5"/>
</linearGradient>
<linearGradient id="paint5_linear_35_508" x1="96.01" y1="92" x2="96.01" y2="77" gradientUnits="userSpaceOnUse">
<stop stop-color="#D1A788"/>
<stop offset="1" stop-color="#F2D3B8"/>
</linearGradient>
<linearGradient id="paint6_linear_35_508" x1="3916" y1="2479" x2="3916" y2="2079" gradientUnits="userSpaceOnUse">
<stop stop-color="#D1A788"/>
<stop offset="1" stop-color="#F2D3B8"/>
</linearGradient>
</defs>
</svg>
