<svg width="102" height="128" viewBox="0 0 102 128" fill="none" xmlns="http://www.w3.org/2000/svg">
<path d="M51 127C21.7 118.8 1 90.9 1 58.67V15C18.631 14.9768 35.9205 10.1358 51 1C66.0791 10.1367 83.3688 14.9778 101 15V58.67C101 91 80.25 118.81 51 127Z" fill="url(#paint0_linear_35_485)"/>
<path d="M101 55.67V58.67C101 90.67 80.48 118.74 51 127C21.52 118.74 1 90.71 1 58.67V55.67C1 87.67 21.52 115.74 51 124C80.48 115.74 101 87.71 101 55.67Z" fill="#5B8DC9"/>
<path d="M51 118.65C26.16 110.65 9 86.29 9 58.65V22.65C23.7181 21.5053 38.0295 17.2698 51 10.22C63.9683 17.2815 78.2793 21.5305 93 22.69V58.69C93 86.29 75.84 110.62 51 118.65Z" fill="url(#paint1_linear_35_485)"/>
<path d="M78 51H24V93H78V51Z" fill="#C7CDD8"/>
<path d="M70 44V51H64C64 44.11 64.78 39.4 60.19 34.81C52.06 26.68 38 32.41 38 44V51H32V44C32 38.9609 34.0018 34.1282 37.565 30.565C41.1282 27.0018 45.9609 25 51 25C56.0391 25 60.8718 27.0018 64.435 30.565C67.9982 34.1282 70 38.9609 70 44V44Z" fill="#C7CDD8"/>
<path d="M93 55.67V58.67C93 86.29 75.84 110.67 51 118.67C26.16 110.67 9 86.31 9 58.67V55.67C9 83.29 26.16 107.67 51 115.67C75.84 107.62 93 83.29 93 55.67Z" fill="#C7CDD8"/>
<path d="M93 22.69V25.69C78.2793 24.5305 63.9683 20.2815 51 13.22C38.0326 20.2838 23.7211 24.5329 9 25.69V22.69C23.7211 21.5329 38.0326 17.2838 51 10.22C63.9683 17.2815 78.2793 21.5305 93 22.69V22.69Z" fill="#C7CDD8"/>
<path d="M78 47H24V89H78V47Z" fill="url(#paint2_linear_35_485)"/>
<path d="M78 85H24V89H78V85Z" fill="#8288A1"/>
<path d="M70 40V47H64C64 40.11 64.78 35.4 60.19 30.81C52.06 22.68 38 28.41 38 40V47H32V40C32 34.9609 34.0018 30.1282 37.565 26.565C41.1282 23.0018 45.9609 21 51 21C56.0391 21 60.8718 23.0018 64.435 26.565C67.9982 30.1282 70 34.9609 70 40V40Z" fill="url(#paint3_linear_35_485)"/>
<path d="M60.64 79.48C58.7934 81.0329 56.5995 82.1175 54.2445 82.6417C51.8894 83.1659 49.4426 83.1143 47.1117 82.4912C44.7808 81.8681 42.6346 80.6919 40.8552 79.0625C39.0759 77.4331 37.7158 75.3984 36.8904 73.1313C36.0651 70.8641 35.7988 68.4313 36.1142 66.0393C36.4296 63.6473 37.3173 61.3666 38.7021 59.3908C40.0868 57.4151 41.9278 55.8025 44.0687 54.6899C46.2096 53.5774 48.5873 52.9977 51 53C65 53 71.3 70.56 60.64 79.48Z" fill="url(#paint4_linear_35_485)"/>
<path d="M60.64 79.48C50.3 88.23 34.3 79.62 36.16 65.98C36.654 69.5703 38.4311 72.8603 41.1628 75.2418C43.8944 77.6234 47.396 78.9354 51.02 78.9354C54.6441 78.9354 58.1456 77.6234 60.8773 75.2418C63.6089 72.8603 65.386 69.5703 65.88 65.98C66.2256 68.4901 65.9259 71.0469 65.009 73.4089C64.0922 75.771 62.5886 77.8604 60.64 79.48V79.48Z" fill="#F6B756"/>
<path d="M60.62 79.49C57.9277 81.7584 54.5205 83.0024 51 83.0024C47.4795 83.0024 44.0723 81.7584 41.38 79.49C42.5 74.72 46.12 70 51 70C55.88 70 59.5 74.72 60.62 79.49Z" fill="url(#paint5_linear_35_485)"/>
<path d="M51 70C53.7614 70 56 67.7614 56 65C56 62.2386 53.7614 60 51 60C48.2386 60 46 62.2386 46 65C46 67.7614 48.2386 70 51 70Z" fill="url(#paint6_linear_35_485)"/>
<path d="M38 43H32V47H38V43Z" fill="#8288A1"/>
<path d="M70 43H64V47H70V43Z" fill="#8288A1"/>
<path d="M60.62 79.49C57.9277 81.7584 54.5205 83.0025 51 83.0025C47.4795 83.0025 44.0723 81.7584 41.38 79.49C41.634 78.4013 42.0097 77.3447 42.5 76.34C44.9956 78.0734 47.9615 79.0024 51 79.0024C54.0385 79.0024 57.0044 78.0734 59.5 76.34C59.9903 77.3447 60.366 78.4013 60.62 79.49Z" fill="#5B8DC9"/>
<path d="M101 14C83.5504 13.9655 66.4416 9.16619 51.52 0.120026C51.41 0.0600262 51 -0.199974 50.29 0.230026C35.4131 9.20576 18.3748 13.9657 1 14C0.734784 14 0.48043 14.1054 0.292893 14.2929C0.105357 14.4805 0 14.7348 0 15V58.67C0 91.11 20.87 119.67 50.75 127.98C50.9266 128.03 51.1134 128.03 51.29 127.98C81.15 119.62 102 91.11 102 58.67V15C102 14.7348 101.895 14.4805 101.707 14.2929C101.52 14.1054 101.265 14 101 14ZM100 58.69C100 90.12 79.87 117.74 51 125.96C22.15 117.72 2 90.1 2 58.67V16C19.2641 15.7898 36.1669 11.026 51 2.19003C65.8331 11.026 82.7359 15.7898 100 16V58.69Z" fill="#27272A"/>
<path d="M8.91998 21.67C8.6653 21.6853 8.4261 21.7974 8.25135 21.9833C8.07661 22.1692 7.97952 22.4149 7.97998 22.67V58.67C7.97998 86.43 25.54 111.5 50.69 119.67C50.8923 119.73 51.1077 119.73 51.31 119.67C76.46 111.5 94 86.43 94 58.67V22.67C94.0004 22.4149 93.9034 22.1692 93.7286 21.9833C93.5539 21.7974 93.3147 21.6853 93.06 21.67C78.4852 20.5428 64.316 16.3333 51.49 9.32004C51.3362 9.23775 51.1644 9.1947 50.99 9.1947C50.8155 9.1947 50.6438 9.23775 50.49 9.32004C37.6639 16.3333 23.4947 20.5428 8.91998 21.67V21.67ZM91.98 23.67V58.67C91.98 85.44 75.14 109.61 50.98 117.57C26.84 109.57 9.97998 85.44 9.97998 58.67V23.67C24.351 22.4273 38.3132 18.2441 51 11.38C63.6837 18.2275 77.6387 22.397 92 23.63L91.98 23.67Z" fill="#27272A"/>
<path d="M24 90H78C78.2652 90 78.5196 89.8946 78.7071 89.7071C78.8946 89.5196 79 89.2652 79 89V47C79 46.7348 78.8946 46.4804 78.7071 46.2929C78.5196 46.1054 78.2652 46 78 46H71V40C71 34.6957 68.8929 29.6086 65.1421 25.8579C61.3914 22.1071 56.3043 20 51 20C45.6957 20 40.6086 22.1071 36.8579 25.8579C33.1071 29.6086 31 34.6957 31 40V46H24C23.7348 46 23.4804 46.1054 23.2929 46.2929C23.1054 46.4804 23 46.7348 23 47V89C23 89.2652 23.1054 89.5196 23.2929 89.7071C23.4804 89.8946 23.7348 90 24 90ZM33 40C33 35.2261 34.8964 30.6477 38.2721 27.2721C41.6477 23.8964 46.2261 22 51 22C55.7739 22 60.3523 23.8964 63.7279 27.2721C67.1036 30.6477 69 35.2261 69 40V46H65V40C65 36.287 63.525 32.726 60.8995 30.1005C58.274 27.475 54.713 26 51 26C47.287 26 43.726 27.475 41.1005 30.1005C38.475 32.726 37 36.287 37 40V46H33V40ZM63 46H39V40C39 36.8174 40.2643 33.7652 42.5147 31.5147C44.7652 29.2643 47.8174 28 51 28C54.1826 28 57.2348 29.2643 59.4853 31.5147C61.7357 33.7652 63 36.8174 63 40V46ZM25 48H77V88H25V48Z" fill="#27272A"/>
<path d="M51 52C36.14 52 29.3 70.72 40.64 80.21C42.6046 81.8737 44.9416 83.0388 47.4527 83.6063C49.9637 84.1739 52.5747 84.1271 55.0638 83.4701C57.5529 82.813 59.8467 81.565 61.7505 79.832C63.6543 78.0991 65.1118 75.9323 65.9992 73.5157C66.8867 71.0991 67.178 68.5041 66.8483 65.9509C66.5186 63.3977 65.5777 60.9618 64.1054 58.8499C62.6332 56.738 60.6731 55.0126 58.3915 53.8201C56.11 52.6276 53.5744 52.0032 51 52V52ZM47 65C47 64.2089 47.2346 63.4355 47.6741 62.7777C48.1137 62.1199 48.7384 61.6072 49.4693 61.3045C50.2002 61.0017 51.0045 60.9225 51.7804 61.0769C52.5563 61.2312 53.269 61.6122 53.8285 62.1716C54.3879 62.731 54.7688 63.4437 54.9232 64.2196C55.0775 64.9956 54.9983 65.7998 54.6955 66.5307C54.3928 67.2616 53.8801 67.8864 53.2223 68.3259C52.5645 68.7654 51.7911 69 51 69C49.9392 69 48.9217 68.5786 48.1716 67.8284C47.4215 67.0783 47 66.0609 47 65ZM42.53 79.1C43.87 74.38 47.35 71 51 71C54.65 71 58.13 74.36 59.47 79.08C57.0405 80.9432 54.0651 81.9547 51.0034 81.9583C47.9417 81.9619 44.964 80.9574 42.53 79.1V79.1ZM61.13 77.62C60.6265 75.9458 59.7905 74.3903 58.6719 73.0466C57.5533 71.703 56.1752 70.5987 54.62 69.8C55.6226 69.0415 56.3616 67.9873 56.7327 66.7861C57.1038 65.585 57.0882 64.2976 56.6881 63.1058C56.2881 61.914 55.5238 60.878 54.5032 60.144C53.4826 59.4099 52.2572 59.0151 51 59.0151C49.7429 59.0151 48.5175 59.4099 47.4968 60.144C46.4762 60.878 45.7119 61.914 45.3119 63.1058C44.9119 64.2976 44.8963 65.585 45.2674 66.7861C45.6385 67.9873 46.3775 69.0415 47.38 69.8C45.8248 70.5987 44.4467 71.703 43.3282 73.0466C42.2096 74.3903 41.3735 75.9458 40.87 77.62C32.48 68.81 38.7 54 51 54C63.3 54 69.52 68.82 61.13 77.62V77.62Z" fill="#27272A"/>
<defs>
<linearGradient id="paint0_linear_35_485" x1="51" y1="127" x2="51" y2="1" gradientUnits="userSpaceOnUse">
<stop stop-color="#7AA8D7"/>
<stop offset="1" stop-color="#96C8EA"/>
</linearGradient>
<linearGradient id="paint1_linear_35_485" x1="51" y1="118.65" x2="51" y2="10.22" gradientUnits="userSpaceOnUse">
<stop stop-color="#DDE1E8"/>
<stop offset="1" stop-color="#F3F4F5"/>
</linearGradient>
<linearGradient id="paint2_linear_35_485" x1="51" y1="89" x2="51" y2="47" gradientUnits="userSpaceOnUse">
<stop stop-color="#949AAF"/>
<stop offset="1" stop-color="#C6CCDA"/>
</linearGradient>
<linearGradient id="paint3_linear_35_485" x1="32" y1="1243" x2="49.8035" y2="566.469" gradientUnits="userSpaceOnUse">
<stop stop-color="#949AAF"/>
<stop offset="1" stop-color="#C6CCDA"/>
</linearGradient>
<linearGradient id="paint4_linear_35_485" x1="51" y1="83.02" x2="51" y2="53" gradientUnits="userSpaceOnUse">
<stop stop-color="#FBCC88"/>
<stop offset="1" stop-color="#FFE5C3"/>
</linearGradient>
<linearGradient id="paint5_linear_35_485" x1="1272.74" y1="1149.2" x2="1272.74" y2="980.171" gradientUnits="userSpaceOnUse">
<stop stop-color="#7AA8D7"/>
<stop offset="1" stop-color="#96C8EA"/>
</linearGradient>
<linearGradient id="paint6_linear_35_485" x1="686" y1="760" x2="686" y2="660" gradientUnits="userSpaceOnUse">
<stop stop-color="#7AA8D7"/>
<stop offset="1" stop-color="#96C8EA"/>
</linearGradient>
</defs>
</svg>
