<svg width="128" height="128" viewBox="0 0 128 128" fill="none" xmlns="http://www.w3.org/2000/svg">
<path d="M127 64C127 69.44 121.86 74.13 120.52 79.15C119.13 84.34 121.2 90.96 118.52 95.51C115.84 100.06 109.06 101.63 105.32 105.37C101.58 109.11 100.07 115.9 95.46 118.57C90.85 121.24 84.29 119.13 79.1 120.57C74.1 121.91 69.39 127.05 63.95 127.05C58.51 127.05 53.82 121.91 48.8 120.57C43.61 119.18 36.99 121.25 32.44 118.57C27.89 115.89 26.32 109.11 22.58 105.37C18.84 101.63 12.05 100.12 9.38 95.51C6.71 90.9 8.87 84.34 7.48 79.15C6.14 74.13 1 69.44 1 64C1 58.56 6.14 53.87 7.48 48.85C8.87 43.66 6.8 37 9.43 32.49C12.06 27.98 18.89 26.37 22.63 22.63C26.37 18.89 27.88 12.1 32.49 9.43C37.1 6.76 43.66 8.87 48.85 7.48C53.87 6.14 58.56 1 64 1C69.44 1 74.13 6.14 79.15 7.48C84.34 8.87 91 6.8 95.51 9.43C100.02 12.06 101.63 18.89 105.37 22.63C109.11 26.37 115.9 27.88 118.57 32.49C121.24 37.1 119.13 43.66 120.57 48.85C121.86 53.87 127 58.56 127 64Z" fill="url(#paint0_linear_35_535)"/>
<path d="M3.00003 57.55C3.04549 63.5127 3.96873 69.4362 5.74003 75.13C1.69003 67.87 -1.08997 65.06 3.00003 57.55Z" fill="#4DA67F"/>
<path d="M120.21 80.71C119.49 85.61 120.94 91.4 118.57 95.51C115.9 100.12 109.11 101.63 105.37 105.37C101.63 109.11 100.12 115.9 95.51 118.57C90.9 121.24 84.34 119.13 79.15 120.57C74.15 121.91 69.44 127.05 64 127.05C58.56 127.05 53.87 121.91 48.85 120.57C43.66 119.18 37.04 121.25 32.49 118.57C27.94 115.89 26.37 109.11 22.63 105.37C18.89 101.63 12.1 100.12 9.43004 95.51C7.06004 91.4 8.51004 85.61 7.79004 80.71C12.4512 91.7676 20.2703 101.205 30.2685 107.84C40.2668 114.476 52.0002 118.015 64 118.015C75.9999 118.015 87.7333 114.476 97.7315 107.84C107.73 101.205 115.549 91.7676 120.21 80.71V80.71Z" fill="#4DA67F"/>
<path d="M122.26 75.13C124.031 69.4362 124.955 63.5127 125 57.55C129.07 65 126.33 67.82 122.26 75.13Z" fill="#4DA67F"/>
<path d="M7.79004 80.71C7.03022 78.8881 6.36271 77.0291 5.79004 75.14C6.81782 76.8465 7.49756 78.7395 7.79004 80.71V80.71Z" fill="#4DA67F"/>
<path d="M122.26 75.14C121.671 77.03 120.987 78.8891 120.21 80.71C120.518 78.7359 121.215 76.8427 122.26 75.14V75.14Z" fill="#4DA67F"/>
<path d="M64 110C89.4051 110 110 89.4051 110 64C110 38.5949 89.4051 18 64 18C38.5949 18 18 38.5949 18 64C18 89.4051 38.5949 110 64 110Z" fill="url(#paint1_linear_35_535)"/>
<path d="M64 18C70.2933 18.0003 76.5197 19.2919 82.2938 21.795C88.068 24.2981 93.2671 27.9594 97.5695 32.5524C101.872 37.1454 105.186 42.5723 107.307 48.4975C109.428 54.4227 110.31 60.7201 109.9 67C109.131 55.3502 103.96 44.4288 95.4369 36.4499C86.9136 28.471 75.6752 24.0315 64 24.0315C52.3248 24.0315 41.0865 28.471 32.5632 36.4499C24.0399 44.4288 18.8694 55.3502 18.1 67C17.6896 60.7201 18.5721 54.4227 20.693 48.4975C22.814 42.5723 26.1281 37.1454 30.4306 32.5524C34.733 27.9594 39.9321 24.2981 45.7062 21.795C51.4803 19.2919 57.7067 18.0003 64 18V18Z" fill="#C7CDD8"/>
<path d="M56 85.66L37.17 66.83L42.83 61.17L56 74.34L85.17 45.17L90.83 50.83L56 85.66Z" fill="#4DA67F"/>
<path d="M64 17C54.7043 17 45.6173 19.7565 37.8882 24.9209C30.1591 30.0854 24.135 37.4258 20.5777 46.0139C17.0204 54.602 16.0896 64.0521 17.9031 73.1692C19.7166 82.2864 24.1929 90.6609 30.766 97.234C37.3391 103.807 45.7137 108.283 54.8308 110.097C63.9479 111.91 73.398 110.98 81.9861 107.422C90.5743 103.865 97.9147 97.8409 103.079 90.1118C108.244 82.3827 111 73.2957 111 64C110.982 51.5405 106.024 39.5966 97.2136 30.7864C88.4034 21.9762 76.4595 17.0185 64 17ZM64 109C55.0999 109 46.3996 106.361 38.9994 101.416C31.5991 96.4715 25.8314 89.4434 22.4254 81.2208C19.0195 72.9981 18.1283 63.9501 19.8647 55.2209C21.601 46.4918 25.8869 38.4736 32.1802 32.1802C38.4736 25.8868 46.4918 21.601 55.221 19.8647C63.9501 18.1283 72.9981 19.0195 81.2208 22.4254C89.4435 25.8314 96.4715 31.5991 101.416 38.9993C106.361 46.3996 109 55.0998 109 64C109 69.9095 107.836 75.7611 105.575 81.2208C103.313 86.6804 99.9985 91.6412 95.8198 95.8198C91.6412 99.9984 86.6804 103.313 81.2208 105.575C75.7611 107.836 69.9095 109 64 109V109Z" fill="#27272A"/>
<path d="M124.39 54.52C121.26 49.3 120.91 48.2 121 41.76C121.12 32.56 119.84 30.25 111.67 25.7C106.19 22.65 105.37 21.83 102.3 16.33C97.71 8.09002 95.3 6.88002 86.24 7.00002C79.81 7.08002 78.72 6.75002 73.48 3.61002C65.41 -1.21998 62.6 -1.22998 54.48 3.61002C49.29 6.75002 48.19 7.09002 41.76 7.00002C32.66 6.88002 30.29 8.09002 25.7 16.33C22.65 21.81 21.83 22.63 16.33 25.7C8.14002 30.26 6.89002 32.57 7.00002 41.76C7.09002 48.17 6.76002 49.27 3.61002 54.52C-1.21998 62.59 -1.22998 65.4 3.61002 73.52C6.74002 78.7 7.09002 79.8 7.00002 86.24C6.88002 95.44 8.16002 97.75 16.33 102.3C21.81 105.3 22.63 106.17 25.7 111.67C30.3 119.93 32.7 121.12 41.76 121C48.19 120.92 49.28 121.25 54.52 124.39C62.59 129.22 65.4 129.23 73.52 124.39C78.75 121.26 79.84 120.92 86.28 121C95.45 121.11 97.77 119.88 102.34 111.67C105.34 106.19 106.21 105.37 111.71 102.3C119.9 97.74 121.15 95.43 121.04 86.24C120.95 79.83 121.28 78.73 124.43 73.48C129.22 65.41 129.23 62.6 124.39 54.52ZM122.67 72.45C119.35 77.99 118.91 79.45 119 86.27C119.11 94.72 118.21 96.37 110.7 100.55C104.88 103.79 103.8 104.87 100.55 110.7C96.36 118.23 94.71 119.1 86.27 119C79.46 118.91 78.01 119.35 72.45 122.67C65.07 127.1 62.99 127.13 55.55 122.67C50.76 119.8 49 119 43.4 119C39.84 119 35.82 119.36 32.99 117.72C28.7 115.24 27.2 108.54 23.34 104.72C19.48 100.9 12.78 99.29 10.3 95C7.82002 90.71 9.87002 84.22 8.45002 78.89C7.08002 73.79 2.00002 69 2.00002 64C2.00002 59 7.10002 54.13 8.45002 49.11C9.87002 43.79 7.86002 37.21 10.3 33C12.74 28.79 19.48 27.21 23.3 23.35C27.12 19.49 28.67 12.79 32.95 10.35C37.23 7.91002 43.75 9.92002 49.07 8.50002C54.21 7.08002 59 2.00002 64 2.00002C69 2.00002 73.87 7.10002 78.89 8.45002C84.22 9.87002 90.79 7.86002 95 10.3C99.21 12.74 100.79 19.48 104.65 23.3C108.51 27.12 115.21 28.67 117.65 32.95C120.09 37.23 118.08 43.74 119.5 49.07C120.92 54.21 126 59 126 64C126 66.9 124.31 69.72 122.67 72.45Z" fill="#27272A"/>
<path d="M85.89 44.45C85.6952 44.2665 85.4377 44.1643 85.17 44.1643C84.9024 44.1643 84.6448 44.2665 84.45 44.45L56 72.9L43.55 60.45C43.3552 60.2665 43.0977 60.1643 42.83 60.1643C42.5624 60.1643 42.3048 60.2665 42.11 60.45C36.05 66.51 36.11 66.24 36.11 66.83C36.11 67.42 34.93 66 55.28 86.38C55.3733 86.4768 55.4852 86.5538 55.6089 86.6064C55.7326 86.659 55.8656 86.6861 56 86.6861C56.1345 86.6861 56.2675 86.659 56.3912 86.6064C56.5149 86.5538 56.6267 86.4768 56.72 86.38C93.93 49.17 91.85 51.46 91.85 50.83C91.85 50.2 91.94 50.5 85.89 44.45ZM56 84.21L38.61 66.83L42.83 62.61L55.28 75.06C55.3733 75.1568 55.4852 75.2338 55.6089 75.2864C55.7326 75.339 55.8656 75.3661 56 75.3661C56.1345 75.3661 56.2675 75.339 56.3912 75.2864C56.5149 75.2338 56.6267 75.1568 56.72 75.06L85.17 46.61L89.39 50.83L56 84.21Z" fill="#27272A"/>
<defs>
<linearGradient id="paint0_linear_35_535" x1="64" y1="127" x2="64" y2="1" gradientUnits="userSpaceOnUse">
<stop stop-color="#6AB891"/>
<stop offset="1" stop-color="#85CBA9"/>
</linearGradient>
<linearGradient id="paint1_linear_35_535" x1="64" y1="110" x2="64" y2="18" gradientUnits="userSpaceOnUse">
<stop stop-color="#DDE1E8"/>
<stop offset="1" stop-color="#F3F4F5"/>
</linearGradient>
</defs>
</svg>
